<?xml version="1.0" encoding="UTF-8" standalone="no"?>
<!-- Generator: Adobe Illustrator 16.0.0, SVG Export Plug-In . SVG Version: 6.00 Build 0)  -->

<svg
   xmlns:dc="http://purl.org/dc/elements/1.1/"
   xmlns:cc="http://creativecommons.org/ns#"
   xmlns:rdf="http://www.w3.org/1999/02/22-rdf-syntax-ns#"
   xmlns:svg="http://www.w3.org/2000/svg"
   xmlns="http://www.w3.org/2000/svg"
   xmlns:sodipodi="http://sodipodi.sourceforge.net/DTD/sodipodi-0.dtd"
   xmlns:inkscape="http://www.inkscape.org/namespaces/inkscape"
   version="1.1"
   id="Capa_1"
   x="0px"
   y="0px"
   width="275.71px"
   height="275.71px"
   viewBox="0 0 275.71 275.71"
   style="enable-background:new 0 0 275.71 275.71;"
   xml:space="preserve"
   sodipodi:docname="information-signal.svg"
   inkscape:version="0.92.3 (2405546, 2018-03-11)"><metadata
   id="metadata41"><rdf:RDF><cc:Work
       rdf:about=""><dc:format>image/svg+xml</dc:format><dc:type
         rdf:resource="http://purl.org/dc/dcmitype/StillImage" /></cc:Work></rdf:RDF></metadata><defs
   id="defs39" /><sodipodi:namedview
   pagecolor="#ffffff"
   bordercolor="#666666"
   borderopacity="1"
   objecttolerance="10"
   gridtolerance="10"
   guidetolerance="10"
   inkscape:pageopacity="0"
   inkscape:pageshadow="2"
   inkscape:window-width="1920"
   inkscape:window-height="1028"
   id="namedview37"
   showgrid="false"
   inkscape:zoom="0.85597188"
   inkscape:cx="70.679892"
   inkscape:cy="137.855"
   inkscape:window-x="-8"
   inkscape:window-y="-8"
   inkscape:window-maximized="1"
   inkscape:current-layer="Capa_1" />
<g
   id="g4"
   style="fill:#afca40;fill-opacity:1">
	<path
   d="M250.966,0H24.749c-4.458,0-8.063,3.606-8.063,8.063v259.583c0,4.451,3.606,8.063,8.063,8.063h226.213   c4.451,0,8.063-3.612,8.063-8.063V8.063C259.03,3.606,255.417,0,250.966,0z M136.18,53.415c9.278,0,16.802,7.521,16.802,16.798   c0,9.278-7.523,16.798-16.802,16.798c-9.279,0-16.798-7.52-16.798-16.798C119.382,60.936,126.901,53.415,136.18,53.415z    M167.763,223.415H104.6c-4.458,0-8.063-3.611-8.063-8.062s3.606-8.063,8.063-8.063h25.199v-87.353h-21.814   c-4.457,0-8.062-3.607-8.062-8.063c0-4.454,3.606-8.063,8.062-8.063h56.387c4.451,0,8.062,3.609,8.062,8.063   c0,4.456-3.611,8.063-8.062,8.063H145.92v87.353h21.843c4.451,0,8.063,3.612,8.063,8.063S172.214,223.415,167.763,223.415z"
   id="path2"
   style="fill:#afca40;fill-opacity:1" />
</g>
<g
   id="g6">
</g>
<g
   id="g8">
</g>
<g
   id="g10">
</g>
<g
   id="g12">
</g>
<g
   id="g14">
</g>
<g
   id="g16">
</g>
<g
   id="g18">
</g>
<g
   id="g20">
</g>
<g
   id="g22">
</g>
<g
   id="g24">
</g>
<g
   id="g26">
</g>
<g
   id="g28">
</g>
<g
   id="g30">
</g>
<g
   id="g32">
</g>
<g
   id="g34">
</g>
</svg>