<?xml version="1.0" encoding="UTF-8" standalone="no"?>
<!-- Generator: Adobe Illustrator 18.0.0, SVG Export Plug-In . SVG Version: 6.00 Build 0)  -->

<svg
   xmlns:dc="http://purl.org/dc/elements/1.1/"
   xmlns:cc="http://creativecommons.org/ns#"
   xmlns:rdf="http://www.w3.org/1999/02/22-rdf-syntax-ns#"
   xmlns:svg="http://www.w3.org/2000/svg"
   xmlns="http://www.w3.org/2000/svg"
   xmlns:sodipodi="http://sodipodi.sourceforge.net/DTD/sodipodi-0.dtd"
   xmlns:inkscape="http://www.inkscape.org/namespaces/inkscape"
   version="1.1"
   id="Capa_1"
   x="0px"
   y="0px"
   viewBox="0 0 281.475 281.475"
   style="enable-background:new 0 0 281.475 281.475;"
   xml:space="preserve"
   sodipodi:docname="telephone-call.svg"
   inkscape:version="0.92.3 (2405546, 2018-03-11)"><metadata
   id="metadata39"><rdf:RDF><cc:Work
       rdf:about=""><dc:format>image/svg+xml</dc:format><dc:type
         rdf:resource="http://purl.org/dc/dcmitype/StillImage" /></cc:Work></rdf:RDF></metadata><defs
   id="defs37" /><sodipodi:namedview
   pagecolor="#ffffff"
   bordercolor="#666666"
   borderopacity="1"
   objecttolerance="10"
   gridtolerance="10"
   guidetolerance="10"
   inkscape:pageopacity="0"
   inkscape:pageshadow="2"
   inkscape:window-width="1367"
   inkscape:window-height="480"
   id="namedview35"
   showgrid="false"
   inkscape:zoom="0.83844034"
   inkscape:cx="140.7375"
   inkscape:cy="140.7375"
   inkscape:window-x="152"
   inkscape:window-y="453"
   inkscape:window-maximized="0"
   inkscape:current-layer="Capa_1" />
<path
   d="M260.274,233.335l-39.359-49.946c-5.515-6.983-15.642-8.18-22.605-2.673l-15.174,11.958  c-7.007,5.508-36.986,8.668-67.398-29.893c-30.397-38.564-20.79-66.63-13.822-72.136l15.171-11.964  c6.985-5.495,8.188-15.619,2.688-22.609L80.405,6.133C74.897-0.852,64.767-2.045,57.77,3.454c0,0-15.44,12.213-15.577,12.331  c-21.357,17.616-29.09,47.681-21.767,84.908c6.327,32.161,23.581,67.307,48.518,98.969c24.979,31.649,55.121,56.621,84.931,70.276  c34.908,16.031,66.299,15.327,88.441-1.942c0.031-0.031,0.074-0.062,0.104-0.088l15.174-11.958  C264.602,250.441,265.788,240.323,260.274,233.335z"
   id="path2"
   style="fill:#afca40;fill-opacity:1" />
<g
   id="g4">
</g>
<g
   id="g6">
</g>
<g
   id="g8">
</g>
<g
   id="g10">
</g>
<g
   id="g12">
</g>
<g
   id="g14">
</g>
<g
   id="g16">
</g>
<g
   id="g18">
</g>
<g
   id="g20">
</g>
<g
   id="g22">
</g>
<g
   id="g24">
</g>
<g
   id="g26">
</g>
<g
   id="g28">
</g>
<g
   id="g30">
</g>
<g
   id="g32">
</g>
</svg>