<?xml version="1.0" encoding="UTF-8" standalone="no"?>
<!-- Generator: Adobe Illustrator 19.0.0, SVG Export Plug-In . SVG Version: 6.00 Build 0)  -->

<svg
   xmlns:dc="http://purl.org/dc/elements/1.1/"
   xmlns:cc="http://creativecommons.org/ns#"
   xmlns:rdf="http://www.w3.org/1999/02/22-rdf-syntax-ns#"
   xmlns:svg="http://www.w3.org/2000/svg"
   xmlns="http://www.w3.org/2000/svg"
   xmlns:sodipodi="http://sodipodi.sourceforge.net/DTD/sodipodi-0.dtd"
   xmlns:inkscape="http://www.inkscape.org/namespaces/inkscape"
   version="1.1"
   id="Layer_1"
   x="0px"
   y="0px"
   viewBox="0 0 512 512"
   style="enable-background:new 0 0 512 512;"
   xml:space="preserve"
   sodipodi:docname="building.svg"
   inkscape:version="0.92.3 (2405546, 2018-03-11)"><metadata
   id="metadata43"><rdf:RDF><cc:Work
       rdf:about=""><dc:format>image/svg+xml</dc:format><dc:type
         rdf:resource="http://purl.org/dc/dcmitype/StillImage" /></cc:Work></rdf:RDF></metadata><defs
   id="defs41" /><sodipodi:namedview
   pagecolor="#ffffff"
   bordercolor="#666666"
   borderopacity="1"
   objecttolerance="10"
   gridtolerance="10"
   guidetolerance="10"
   inkscape:pageopacity="0"
   inkscape:pageshadow="2"
   inkscape:window-width="1920"
   inkscape:window-height="1028"
   id="namedview39"
   showgrid="false"
   inkscape:zoom="0.4609375"
   inkscape:cx="131.25424"
   inkscape:cy="256"
   inkscape:window-x="-8"
   inkscape:window-y="-8"
   inkscape:window-maximized="1"
   inkscape:current-layer="Layer_1" />
<g
   id="g6"
   style="fill:#bca47b;fill-opacity:1">
	<g
   id="g4"
   style="fill:#bca47b;fill-opacity:1">
		<path
   d="M494.989,411.241h-39.122v-30.112c20.574-7.081,35.403-26.617,35.403-49.565c0-28.901-23.512-52.414-52.414-52.414    s-52.414,23.512-52.414,52.414c0,22.947,14.829,42.484,35.403,49.565v30.112h-59.533V83.748c0-9.394-7.616-17.011-17.011-17.011    H166.697c-9.394,0-17.011,7.616-17.011,17.011v327.493H91.856v-30.112c20.574-7.081,35.403-26.617,35.403-49.565    c0-28.901-23.512-52.414-52.414-52.414c-28.901,0-52.415,23.512-52.415,52.414c0,22.947,14.83,42.484,35.404,49.565v30.112H17.011    C7.616,411.241,0,418.858,0,428.252s7.616,17.011,17.011,17.011h477.979c9.394,0,17.011-7.616,17.011-17.011    S504.385,411.241,494.989,411.241z M270.742,165.54c0-9.394,7.616-17.011,17.011-17.011c9.395,0,17.011,7.616,17.011,17.011    v21.547c0,9.394-7.616,17.011-17.011,17.011c-9.394,0-17.011-7.616-17.011-17.011V165.54z M270.742,263.069    c0-9.394,7.616-17.011,17.011-17.011s17.011,7.616,17.011,17.011v21.547c0,9.394-7.616,17.011-17.011,17.011    s-17.011-7.616-17.011-17.011V263.069z M207.235,165.54c0-9.394,7.616-17.011,17.011-17.011s17.011,7.616,17.011,17.011v21.547    c0,9.394-7.616,17.011-17.011,17.011s-17.011-7.616-17.011-17.011V165.54z M207.235,263.069c0-9.394,7.616-17.011,17.011-17.011    s17.011,7.616,17.011,17.011v21.547c0,9.394-7.616,17.011-17.011,17.011s-17.011-7.616-17.011-17.011V263.069z M306.575,411.24    h-99.447v-48.416c0-9.394,7.616-17.011,17.011-17.011h65.426c9.394,0,17.011,7.616,17.011,17.011V411.24z"
   id="path2"
   style="fill:#bca47b;fill-opacity:1" />
	</g>
</g>
<g
   id="g8">
</g>
<g
   id="g10">
</g>
<g
   id="g12">
</g>
<g
   id="g14">
</g>
<g
   id="g16">
</g>
<g
   id="g18">
</g>
<g
   id="g20">
</g>
<g
   id="g22">
</g>
<g
   id="g24">
</g>
<g
   id="g26">
</g>
<g
   id="g28">
</g>
<g
   id="g30">
</g>
<g
   id="g32">
</g>
<g
   id="g34">
</g>
<g
   id="g36">
</g>
</svg>