<?xml version="1.0" encoding="UTF-8" standalone="no"?>
<!-- Generator: Adobe Illustrator 19.0.0, SVG Export Plug-In . SVG Version: 6.00 Build 0)  -->

<svg
   xmlns:dc="http://purl.org/dc/elements/1.1/"
   xmlns:cc="http://creativecommons.org/ns#"
   xmlns:rdf="http://www.w3.org/1999/02/22-rdf-syntax-ns#"
   xmlns:svg="http://www.w3.org/2000/svg"
   xmlns="http://www.w3.org/2000/svg"
   xmlns:sodipodi="http://sodipodi.sourceforge.net/DTD/sodipodi-0.dtd"
   xmlns:inkscape="http://www.inkscape.org/namespaces/inkscape"
   version="1.1"
   id="Capa_1"
   x="0px"
   y="0px"
   viewBox="0 0 511.992 511.992"
   style="enable-background:new 0 0 511.992 511.992;"
   xml:space="preserve"
   sodipodi:docname="email.svg"
   inkscape:version="0.92.3 (2405546, 2018-03-11)"><metadata
   id="metadata43"><rdf:RDF><cc:Work
       rdf:about=""><dc:format>image/svg+xml</dc:format><dc:type
         rdf:resource="http://purl.org/dc/dcmitype/StillImage" /></cc:Work></rdf:RDF></metadata><defs
   id="defs41" /><sodipodi:namedview
   pagecolor="#ffffff"
   bordercolor="#666666"
   borderopacity="1"
   objecttolerance="10"
   gridtolerance="10"
   guidetolerance="10"
   inkscape:pageopacity="0"
   inkscape:pageshadow="2"
   inkscape:window-width="1040"
   inkscape:window-height="480"
   id="namedview39"
   showgrid="false"
   inkscape:zoom="0.4609447"
   inkscape:cx="255.996"
   inkscape:cy="255.996"
   inkscape:window-x="89"
   inkscape:window-y="75"
   inkscape:window-maximized="0"
   inkscape:current-layer="Capa_1" />
<g
   id="g6"
   style="fill:#bca47b;fill-opacity:1">
	<g
   id="g4"
   style="fill:#bca47b;fill-opacity:1">
		<path
   d="M506.021,19.53c-4.448-3.584-10.592-4.512-15.968-2.4l-480,192c-5.92,2.368-9.888,8.032-10.048,14.432    c-0.16,6.4,3.488,12.256,9.312,14.944l150.688,69.568l336-276.096l-272,305.632v158.368l113.536-105.952l87.744,40.48    c2.144,0.96,4.448,1.472,6.72,1.472c2.56,0,5.152-0.64,7.456-1.856c4.448-2.336,7.488-6.592,8.32-11.52l64-384    C512.709,28.938,510.533,23.146,506.021,19.53z"
   id="path2"
   style="fill:#bca47b;fill-opacity:1" />
	</g>
</g>
<g
   id="g8">
</g>
<g
   id="g10">
</g>
<g
   id="g12">
</g>
<g
   id="g14">
</g>
<g
   id="g16">
</g>
<g
   id="g18">
</g>
<g
   id="g20">
</g>
<g
   id="g22">
</g>
<g
   id="g24">
</g>
<g
   id="g26">
</g>
<g
   id="g28">
</g>
<g
   id="g30">
</g>
<g
   id="g32">
</g>
<g
   id="g34">
</g>
<g
   id="g36">
</g>
</svg>