<?xml version="1.0" encoding="UTF-8" standalone="no"?>
<!-- Generator: Adobe Illustrator 24.1.2, SVG Export Plug-In . SVG Version: 6.00 Build 0)  -->

<svg
   xmlns:dc="http://purl.org/dc/elements/1.1/"
   xmlns:cc="http://creativecommons.org/ns#"
   xmlns:rdf="http://www.w3.org/1999/02/22-rdf-syntax-ns#"
   xmlns:svg="http://www.w3.org/2000/svg"
   xmlns="http://www.w3.org/2000/svg"
   xmlns:sodipodi="http://sodipodi.sourceforge.net/DTD/sodipodi-0.dtd"
   xmlns:inkscape="http://www.inkscape.org/namespaces/inkscape"
   version="1.1"
   id="Capa_1"
   x="0px"
   y="0px"
   viewBox="0 0 512 512"
   style="enable-background:new 0 0 512 512;"
   xml:space="preserve"
   sodipodi:docname="twitter.svg"
   inkscape:version="0.92.3 (2405546, 2018-03-11)"><metadata
   id="metadata13"><rdf:RDF><cc:Work
       rdf:about=""><dc:format>image/svg+xml</dc:format><dc:type
         rdf:resource="http://purl.org/dc/dcmitype/StillImage" /></cc:Work></rdf:RDF></metadata><defs
   id="defs11" /><sodipodi:namedview
   pagecolor="#ffffff"
   bordercolor="#666666"
   borderopacity="1"
   objecttolerance="10"
   gridtolerance="10"
   guidetolerance="10"
   inkscape:pageopacity="0"
   inkscape:pageshadow="2"
   inkscape:window-width="1062"
   inkscape:window-height="480"
   id="namedview9"
   showgrid="false"
   inkscape:zoom="0.4609375"
   inkscape:cx="131.25424"
   inkscape:cy="30.794528"
   inkscape:window-x="189"
   inkscape:window-y="107"
   inkscape:window-maximized="0"
   inkscape:current-layer="Capa_1" />
<g
   id="g6"
   style="fill:#cce079;fill-opacity:1">
	<g
   id="g4"
   style="fill:#cce079;fill-opacity:1">
		<path
   d="M512,97.2c-19,8.4-39.3,13.9-60.5,16.6c21.8-13,38.4-33.4,46.2-58c-20.3,12.1-42.7,20.6-66.6,25.4    C411.9,60.7,384.4,48,354.5,48c-58.1,0-104.9,47.2-104.9,105c0,8.3,0.7,16.3,2.4,23.9c-87.3-4.3-164.5-46.1-216.4-109.8    c-9.1,15.7-14.4,33.7-14.4,53.1c0,36.4,18.7,68.6,46.6,87.2c-16.9-0.3-33.4-5.2-47.4-12.9c0,0.3,0,0.7,0,1.2    c0,51,36.4,93.4,84.1,103.1c-8.5,2.3-17.9,3.5-27.5,3.5c-6.7,0-13.5-0.4-19.9-1.8c13.6,41.6,52.2,72.1,98.1,73.1    c-35.7,27.9-81.1,44.8-130.1,44.8c-8.6,0-16.9-0.4-25.1-1.4c46.5,30,101.6,47.1,161,47.1c193.2,0,298.8-160,298.8-298.7    c0-4.6-0.2-9.1-0.4-13.6C480.2,137,497.7,118.5,512,97.2z"
   id="path2"
   style="fill:#cce079;fill-opacity:1" />
	</g>
</g>
</svg>